<svg xmlns="http://www.w3.org/2000/svg" width="1600" height="900" viewBox="0 0 1600 900">
  <defs>
    <linearGradient id="bg" x1="0" y1="0" x2="1" y2="1">
      <stop offset="0%" stop-color="#f8fbff"/>
      <stop offset="55%" stop-color="#ffffff"/>
      <stop offset="100%" stop-color="#eef6ff"/>
    </linearGradient>
    <filter id="shadow" x="-20%" y="-20%" width="140%" height="140%">
      <feDropShadow dx="0" dy="12" stdDeviation="14" flood-color="#0f172a" flood-opacity="0.12"/>
    </filter>
    <style>
      .title{font-family:Arial,Helvetica,sans-serif;font-size:56px;font-weight:800;fill:#0ea5e9}
      .subtitle{font-family:Arial,Helvetica,sans-serif;font-size:20px;font-weight:600;fill:#64748b}
      .col-title{font-family:Arial,Helvetica,sans-serif;font-size:30px;font-weight:800;fill:#111827}
      .card-text{font-family:Arial,Helvetica,sans-serif;font-size:24px;font-weight:800;fill:#111827}
      .small{font-family:Arial,Helvetica,sans-serif;font-size:16px;font-weight:700;fill:#64748b}
      .pill{rx:24;filter:url(#shadow)}
      .divider{stroke:#e2e8f0;stroke-width:2;stroke-dasharray:6 10}
    </style>
  </defs>

  <rect width="1600" height="900" fill="url(#bg)"/>
  <circle cx="1450" cy="70" r="130" fill="#dbeafe" opacity="0.55"/>
  <circle cx="85" cy="820" r="170" fill="#dcfce7" opacity="0.45"/>

  <text x="74" y="92" class="title">Technology &amp; Tools</text>
  <text x="78" y="130" class="subtitle">Freelancer Protection Trust Platform</text>

  <g transform="translate(1050 36)">
    <rect x="0" y="0" width="430" height="82" rx="22" fill="#ffffff" filter="url(#shadow)"/>
    <rect x="24" y="18" width="52" height="46" rx="8" fill="#ef4444"/>
    <text x="36" y="52" font-family="Arial,Helvetica,sans-serif" font-size="28" font-weight="900" fill="#fff">F</text>
    <text x="92" y="35" font-family="Arial,Helvetica,sans-serif" font-size="27" font-weight="900" fill="#dc2626">FPTP</text>
    <text x="92" y="62" font-family="Arial,Helvetica,sans-serif" font-size="17" font-weight="700" fill="#64748b">Trust Platform Project</text>
    <text x="270" y="36" font-family="Arial,Helvetica,sans-serif" font-size="18" font-weight="800" fill="#2563eb">React • Express</text>
    <text x="270" y="61" font-family="Arial,Helvetica,sans-serif" font-size="18" font-weight="800" fill="#16a34a">MongoDB • FastAPI</text>
  </g>

  <line x1="376" y1="176" x2="376" y2="820" class="divider"/>
  <line x1="666" y1="176" x2="666" y2="820" class="divider"/>
  <line x1="956" y1="176" x2="956" y2="820" class="divider"/>
  <line x1="1246" y1="176" x2="1246" y2="820" class="divider"/>

  <g transform="translate(70 170)">
    <text x="110" y="0" text-anchor="middle" class="col-title">Frontend</text>
    <g transform="translate(0 50)">
      <rect width="250" height="86" class="pill" fill="#ffffff"/>
      <text x="125" y="54" text-anchor="middle" class="card-text" fill="#0f172a">React 19</text>
      <text x="125" y="76" text-anchor="middle" class="small">UI components</text>
    </g>
    <g transform="translate(0 154)">
      <rect width="250" height="86" class="pill" fill="#eff6ff"/>
      <text x="125" y="54" text-anchor="middle" class="card-text" fill="#2563eb">Vite</text>
      <text x="125" y="76" text-anchor="middle" class="small">Build tool</text>
    </g>
    <g transform="translate(0 258)">
      <rect width="250" height="86" class="pill" fill="#ecfeff"/>
      <text x="125" y="54" text-anchor="middle" class="card-text" fill="#0891b2">Tailwind CSS</text>
      <text x="125" y="76" text-anchor="middle" class="small">Responsive layout</text>
    </g>
    <g transform="translate(0 362)">
      <rect width="250" height="86" class="pill" fill="#fffbeb"/>
      <text x="125" y="54" text-anchor="middle" class="card-text" fill="#d97706">HTML • CSS • JS</text>
      <text x="125" y="76" text-anchor="middle" class="small">Browser foundation</text>
    </g>
    <g transform="translate(0 466)">
      <rect width="250" height="86" class="pill" fill="#f8fafc"/>
      <text x="125" y="54" text-anchor="middle" class="card-text">Fetch API</text>
      <text x="125" y="76" text-anchor="middle" class="small">REST requests</text>
    </g>
  </g>

  <g transform="translate(395 170)">
    <text x="110" y="0" text-anchor="middle" class="col-title">Backend</text>
    <g transform="translate(0 50)">
      <rect width="250" height="86" class="pill" fill="#f0fdf4"/>
      <text x="125" y="54" text-anchor="middle" class="card-text" fill="#15803d">Node.js</text>
      <text x="125" y="76" text-anchor="middle" class="small">Runtime</text>
    </g>
    <g transform="translate(0 154)">
      <rect width="250" height="86" class="pill" fill="#f8fafc"/>
      <text x="125" y="54" text-anchor="middle" class="card-text">Express 5</text>
      <text x="125" y="76" text-anchor="middle" class="small">API server</text>
    </g>
    <g transform="translate(0 258)">
      <rect width="250" height="86" class="pill" fill="#ecfdf5"/>
      <text x="125" y="54" text-anchor="middle" class="card-text" fill="#16a34a">MongoDB</text>
      <text x="125" y="76" text-anchor="middle" class="small">Database</text>
    </g>
    <g transform="translate(0 362)">
      <rect width="250" height="86" class="pill" fill="#f0fdfa"/>
      <text x="125" y="54" text-anchor="middle" class="card-text" fill="#0f766e">Mongoose</text>
      <text x="125" y="76" text-anchor="middle" class="small">ODM models</text>
    </g>
    <g transform="translate(0 466)">
      <rect width="250" height="86" class="pill" fill="#fff7ed"/>
      <text x="125" y="54" text-anchor="middle" class="card-text" fill="#ea580c">JWT • bcrypt</text>
      <text x="125" y="76" text-anchor="middle" class="small">Auth security</text>
    </g>
  </g>

  <g transform="translate(720 170)">
    <text x="110" y="0" text-anchor="middle" class="col-title">API 3rd</text>
    <g transform="translate(0 50)">
      <rect width="250" height="86" class="pill" fill="#fff1f2"/>
      <text x="125" y="54" text-anchor="middle" class="card-text" fill="#e11d48">SePay</text>
      <text x="125" y="76" text-anchor="middle" class="small">Wallet top-up webhook</text>
    </g>
    <g transform="translate(0 154)">
      <rect width="250" height="86" class="pill" fill="#f0f9ff"/>
      <text x="125" y="54" text-anchor="middle" class="card-text" fill="#0284c7">VietQR</text>
      <text x="125" y="76" text-anchor="middle" class="small">Bank QR payment</text>
    </g>
    <g transform="translate(0 258)">
      <rect width="250" height="86" class="pill" fill="#f5f3ff"/>
      <text x="125" y="54" text-anchor="middle" class="card-text" fill="#7c3aed">FastAPI KYC</text>
      <text x="125" y="76" text-anchor="middle" class="small">Identity module</text>
    </g>
    <g transform="translate(0 362)">
      <rect width="250" height="86" class="pill" fill="#f8fafc"/>
      <text x="125" y="54" text-anchor="middle" class="card-text">Socket.IO</text>
      <text x="125" y="76" text-anchor="middle" class="small">Realtime events</text>
    </g>
    <g transform="translate(0 466)">
      <rect width="250" height="86" class="pill" fill="#fefce8"/>
      <text x="125" y="54" text-anchor="middle" class="card-text" fill="#a16207">Nodemailer</text>
      <text x="125" y="76" text-anchor="middle" class="small">Email service</text>
    </g>
  </g>

  <g transform="translate(1045 170)">
    <text x="110" y="0" text-anchor="middle" class="col-title">Framework</text>
    <g transform="translate(0 50)">
      <rect width="250" height="86" class="pill" fill="#fef2f2"/>
      <text x="125" y="54" text-anchor="middle" class="card-text" fill="#dc2626">React Router</text>
      <text x="125" y="76" text-anchor="middle" class="small">Page routing</text>
    </g>
    <g transform="translate(0 154)">
      <rect width="250" height="86" class="pill" fill="#eef2ff"/>
      <text x="125" y="54" text-anchor="middle" class="card-text" fill="#4f46e5">FastAPI</text>
      <text x="125" y="76" text-anchor="middle" class="small">Python backend</text>
    </g>
    <g transform="translate(0 258)">
      <rect width="250" height="86" class="pill" fill="#eff6ff"/>
      <text x="125" y="54" text-anchor="middle" class="card-text" fill="#2563eb">Uvicorn</text>
      <text x="125" y="76" text-anchor="middle" class="small">ASGI server</text>
    </g>
    <g transform="translate(0 362)">
      <rect width="250" height="86" class="pill" fill="#faf5ff"/>
      <text x="125" y="54" text-anchor="middle" class="card-text" fill="#9333ea">Lucide React</text>
      <text x="125" y="76" text-anchor="middle" class="small">Icon system</text>
    </g>
  </g>

  <g transform="translate(1370 170)">
    <text x="70" y="0" text-anchor="middle" class="col-title">IDE</text>
    <g transform="translate(-55 50)">
      <rect width="250" height="86" class="pill" fill="#eff6ff"/>
      <text x="125" y="54" text-anchor="middle" class="card-text" fill="#2563eb">VS Code</text>
      <text x="125" y="76" text-anchor="middle" class="small">Development IDE</text>
    </g>
    <g transform="translate(-55 154)">
      <rect width="250" height="86" class="pill" fill="#f8fafc"/>
      <text x="125" y="54" text-anchor="middle" class="card-text">PowerShell</text>
      <text x="125" y="76" text-anchor="middle" class="small">Terminal</text>
    </g>
    <g transform="translate(-55 258)">
      <rect width="250" height="86" class="pill" fill="#f0fdf4"/>
      <text x="125" y="54" text-anchor="middle" class="card-text" fill="#16a34a">npm</text>
      <text x="125" y="76" text-anchor="middle" class="small">Package manager</text>
    </g>
    <g transform="translate(-55 362)">
      <rect width="250" height="86" class="pill" fill="#f1f5f9"/>
      <text x="125" y="54" text-anchor="middle" class="card-text">Git</text>
      <text x="125" y="76" text-anchor="middle" class="small">Version control</text>
    </g>
  </g>
</svg>
